<?xml version="1.0" encoding="UTF-8" standalone="no"?>
<!DOCTYPE svg PUBLIC "-//W3C//DTD SVG 1.1//EN" "http://www.w3.org/Graphics/SVG/1.1/DTD/svg11.dtd">
<!-- Generated by graphviz version 12.1.2 (20240928.0832)
 -->
<!-- Pages: 1 -->
<svg width="513pt" height="206pt"
      viewBox="0.00 0.00 512.75 206.00" xmlns="http://www.w3.org/2000/svg"
      xmlns:xlink="http://www.w3.org/1999/xlink">
      <g id="graph0" class="graph" transform="scale(1 1) rotate(0) translate(4 202)">
            <polygon fill="white" stroke="none" points="-4,4 -4,-202 508.75,-202 508.75,4 -4,4" />
            <!-- PostgreSQL -->
            <a href="https://pgadmin.harp.demo/" target="_blank">
                  <g id="node1" class="node">
                        <title>PostgreSQL</title>
                        <path fill="#add8e6" stroke="#085e9f"
                              d="M384.75,-194.73C384.75,-196.53 366.37,-198 343.75,-198 321.13,-198 302.75,-196.53 302.75,-194.73 302.75,-194.73 302.75,-165.27 302.75,-165.27 302.75,-163.47 321.13,-162 343.75,-162 366.37,-162 384.75,-163.47 384.75,-165.27 384.75,-165.27 384.75,-194.73 384.75,-194.73" />
                        <path fill="none" stroke="#085e9f"
                              d="M384.75,-194.73C384.75,-192.92 366.37,-191.45 343.75,-191.45 321.13,-191.45 302.75,-192.92 302.75,-194.73" />
                        <text text-anchor="middle" x="343.75" y="-174.95" font-family="Times,serif"
                              font-size="14.00" fill="#085e9f">PostgreSQL</text>
                  </g>
            </a>
            <!-- Dashboard -->
            <a href="https://dashboard.harp.demo/" target="_blank">
                  <g id="node2" class="node">
                        <title>Dashboard</title>
                        <polygon fill="#085e9f" stroke="white"
                              points="173,-98 98.5,-98 98.5,-62 173,-62 173,-98" />
                        <text text-anchor="middle" x="135.75" y="-74.95" font-family="Times,serif"
                              font-size="14.00" fill="white">Dashboard</text>
                  </g>
            </a>
            <!-- HARP -->
            <a href="https://dashboard.harp.demo/" target="_blank">
                  <g id="node3" class="node">
                        <title>HARP</title>
                        <polygon fill="#085e9f" stroke="white"
                              points="266,-144 212,-144 212,-108 266,-108 266,-144" />
                        <text text-anchor="middle" x="239" y="-120.95" font-family="Times,serif"
                              font-size="14.00" fill="white">HARP</text>
                  </g>
            </a>
            <!-- Dashboard&#45;&gt;HARP -->
            <g id="edge11" class="edge">
                  <title>Dashboard&#45;&gt;HARP</title>
                  <path fill="none" stroke="black"
                        d="M173.3,-96.61C182.42,-100.75 192.2,-105.19 201.33,-109.34" />
                  <polygon fill="black" stroke="black"
                        points="199.73,-112.46 210.28,-113.41 202.63,-106.09 199.73,-112.46" />
            </g>
            <!-- HARP&#45;&gt;PostgreSQL -->
            <g id="edge12" class="edge">
                  <title>HARP&#45;&gt;PostgreSQL</title>
                  <path fill="none" stroke="black"
                        d="M266.46,-139.91C276.01,-144.93 287.08,-150.74 297.78,-156.36" />
                  <polygon fill="black" stroke="black"
                        points="296.03,-159.4 306.51,-160.96 299.29,-153.2 296.03,-159.4" />
            </g>
            <!-- api1 (proxy) -->
            <a href="https://api1.harp.demo/" target="_blank">
                  <g id="node4" class="node">
                        <title>api1 (proxy)</title>
                        <polygon fill="#085e9f" stroke="white"
                              points="385.5,-144 302,-144 302,-108 385.5,-108 385.5,-144" />
                        <text text-anchor="middle" x="343.75" y="-120.95" font-family="Times,serif"
                              font-size="14.00" fill="white">api1 (proxy)</text>
                  </g>
            </a>
            <!-- HARP&#45;&gt;api1 (proxy) -->
            <g id="edge1" class="edge">
                  <title>HARP&#45;&gt;api1 (proxy)</title>
                  <path fill="none" stroke="black"
                        d="M266.46,-126C273.82,-126 282.08,-126 290.37,-126" />
                  <polygon fill="black" stroke="black"
                        points="290.11,-129.5 300.11,-126 290.11,-122.5 290.11,-129.5" />
            </g>
            <!-- api2 (proxy) -->

            <a href="https://api2.harp.demo/" target="_blank">
                  <g id="node5" class="node">
                        <title>api2 (proxy)</title>
                        <polygon fill="#085e9f" stroke="white"
                              points="385.5,-90 302,-90 302,-54 385.5,-54 385.5,-90" />
                        <text text-anchor="middle" x="343.75" y="-66.95" font-family="Times,serif"
                              font-size="14.00" fill="white">api2 (proxy)</text>
                  </g>
            </a>
            <!-- HARP&#45;&gt;api2 (proxy) -->
            <g id="edge6" class="edge">
                  <title>HARP&#45;&gt;api2 (proxy)</title>
                  <path fill="none" stroke="black"
                        d="M266.46,-112.09C276.01,-107.07 287.08,-101.26 297.78,-95.64" />
                  <polygon fill="black" stroke="black"
                        points="299.29,-98.8 306.51,-91.04 296.03,-92.6 299.29,-98.8" />
            </g>
            <!-- httpbin1 -->

            <a href="https://api1-internal.harp.demo/" target="_blank">
                  <g id="node9" class="node">
                        <title>httpbin1</title>
                        <ellipse fill="none" stroke="black" cx="463.13" cy="-72" rx="41.63" ry="18" />
                        <text text-anchor="middle" x="463.13" y="-66.95" font-family="Times,serif"
                              font-size="14.00">httpbin1</text>
                  </g>
            </a>
            <!-- api1 (proxy)&#45;&gt;httpbin1 -->
            <g id="edge2" class="edge">
                  <title>api1 (proxy)&#45;&gt;httpbin1</title>
                  <path fill="none" stroke="black"
                        d="M384.82,-107.57C397.25,-101.85 410.92,-95.56 423.27,-89.88" />
                  <polygon fill="black" stroke="black"
                        points="424.72,-93.06 432.34,-85.71 421.79,-86.7 424.72,-93.06" />
            </g>
            <!-- httpbin2 -->

            <a href="https://api2-internal.harp.demo/" target="_blank">
                  <g id="node10" class="node">
                        <title>httpbin2</title>
                        <ellipse fill="none" stroke="black" cx="463.13" cy="-18" rx="41.63" ry="18" />
                        <text text-anchor="middle" x="463.13" y="-12.95" font-family="Times,serif"
                              font-size="14.00">httpbin2</text>
                  </g>
            </a>
            <!-- api1 (proxy)&#45;&gt;httpbin2 -->
            <g id="edge3" class="edge">
                  <title>api1 (proxy)&#45;&gt;httpbin2</title>
                  <path fill="none" stroke="black"
                        d="M375.61,-107.51C379.11,-104.85 382.5,-102 385.5,-99 405.92,-78.63 401.09,-65.38 421.5,-45 423.55,-42.96 425.77,-40.98 428.08,-39.09" />
                  <polygon fill="black" stroke="black"
                        points="430.14,-41.92 436.08,-33.14 425.97,-36.3 430.14,-41.92" />
            </g>
            <!-- httpbin3 -->

            <a href="https://api3-internal.harp.demo/" target="_blank">
                  <g id="node11" class="node">
                        <title>httpbin3</title>
                        <ellipse fill="none" stroke="black" cx="463.13" cy="-180" rx="41.63" ry="18" />
                        <text text-anchor="middle" x="463.13" y="-174.95" font-family="Times,serif"
                              font-size="14.00">httpbin3</text>
                  </g>
            </a>
            <!-- api1 (proxy)&#45;&gt;httpbin3 -->
            <g id="edge4" class="edge">
                  <title>api1 (proxy)&#45;&gt;httpbin3</title>
                  <path fill="none" stroke="black"
                        d="M384.82,-144.43C397.25,-150.15 410.92,-156.44 423.27,-162.12" />
                  <polygon fill="black" stroke="black"
                        points="421.79,-165.3 432.34,-166.29 424.72,-158.94 421.79,-165.3" />
            </g>
            <!-- httpbin4 -->

            <a href="https://api4-internal.harp.demo/" target="_blank">
                  <g id="node12" class="node">
                        <title>httpbin4</title>
                        <ellipse fill="none" stroke="black" cx="463.13" cy="-126" rx="41.63" ry="18" />
                        <text text-anchor="middle" x="463.13" y="-120.95" font-family="Times,serif"
                              font-size="14.00">httpbin4</text>
                  </g>
            </a>
            <!-- api1 (proxy)&#45;&gt;httpbin4 -->
            <g id="edge5" class="edge">
                  <title>api1 (proxy)&#45;&gt;httpbin4</title>
                  <path fill="none" stroke="black"
                        d="M385.8,-126C393.62,-126 401.9,-126 410.01,-126" />
                  <polygon fill="black" stroke="black"
                        points="409.78,-129.5 419.78,-126 409.78,-122.5 409.78,-129.5" />
            </g>
            <!-- api2 (proxy)&#45;&gt;httpbin1 -->
            <g id="edge9" class="edge">
                  <title>api2 (proxy)&#45;&gt;httpbin1</title>
                  <path fill="none" stroke="black" d="M385.8,-72C393.62,-72 401.9,-72 410.01,-72" />
                  <polygon fill="black" stroke="black"
                        points="409.78,-75.5 419.78,-72 409.78,-68.5 409.78,-75.5" />
            </g>
            <!-- api2 (proxy)&#45;&gt;httpbin2 -->
            <g id="edge10" class="edge">
                  <title>api2 (proxy)&#45;&gt;httpbin2</title>
                  <path fill="none" stroke="black"
                        d="M384.82,-53.57C397.25,-47.85 410.92,-41.56 423.27,-35.88" />
                  <polygon fill="black" stroke="black"
                        points="424.72,-39.06 432.34,-31.71 421.79,-32.7 424.72,-39.06" />
            </g>
            <!-- api2 (proxy)&#45;&gt;httpbin3 -->
            <g id="edge7" class="edge">
                  <title>api2 (proxy)&#45;&gt;httpbin3</title>
                  <path fill="none" stroke="black"
                        d="M375.61,-90.49C379.11,-93.15 382.5,-96 385.5,-99 405.92,-119.37 401.09,-132.62 421.5,-153 423.55,-155.04 425.77,-157.02 428.08,-158.91" />
                  <polygon fill="black" stroke="black"
                        points="425.97,-161.7 436.08,-164.86 430.14,-156.08 425.97,-161.7" />
            </g>
            <!-- api2 (proxy)&#45;&gt;httpbin4 -->
            <g id="edge8" class="edge">
                  <title>api2 (proxy)&#45;&gt;httpbin4</title>
                  <path fill="none" stroke="black"
                        d="M384.82,-90.43C397.25,-96.15 410.92,-102.44 423.27,-108.12" />
                  <polygon fill="black" stroke="black"
                        points="421.79,-111.3 432.34,-112.29 424.72,-104.94 421.79,-111.3" />
            </g>
            <!-- Prometheus -->

            <a href="https://prometheus.harp.demo/" target="_blank">
                  <g id="node6" class="node">
                        <title>Prometheus</title>
                        <path fill="none" stroke="#6b7280"
                              d="M176,-148.73C176,-150.53 157.96,-152 135.75,-152 113.54,-152 95.5,-150.53 95.5,-148.73 95.5,-148.73 95.5,-119.27 95.5,-119.27 95.5,-117.47 113.54,-116 135.75,-116 157.96,-116 176,-117.47 176,-119.27 176,-119.27 176,-148.73 176,-148.73" />
                        <path fill="none" stroke="#6b7280"
                              d="M176,-148.73C176,-146.92 157.96,-145.45 135.75,-145.45 113.54,-145.45 95.5,-146.92 95.5,-148.73" />
                        <text text-anchor="middle" x="135.75" y="-128.95" font-family="Times,serif"
                              font-size="14.00" fill="#6b7280">Prometheus</text>
                  </g>
            </a>
            <!-- Prometheus&#45;&gt;HARP -->
            <g id="edge15" class="edge">
                  <title>Prometheus&#45;&gt;HARP</title>
                  <path fill="none" stroke="black"
                        d="M176.48,-130.86C184.35,-130.24 192.59,-129.59 200.39,-128.97" />
                  <polygon fill="black" stroke="black"
                        points="200.58,-132.47 210.28,-128.19 200.03,-125.49 200.58,-132.47" />
            </g>
            <!-- Grafana -->

            <a href="https://grafana.harp.demo/" target="_blank">
                  <g id="node7" class="node">
                        <title>Grafana</title>
                        <polygon fill="none" stroke="#6b7280"
                              points="59.5,-175 0,-175 0,-139 59.5,-139 59.5,-175" />
                        <text text-anchor="middle" x="29.75" y="-151.95" font-family="Times,serif"
                              font-size="14.00" fill="#6b7280">Grafana</text>
                  </g>
            </a>
            <!-- Grafana&#45;&gt;PostgreSQL -->
            <g id="edge16" class="edge">
                  <title>Grafana&#45;&gt;PostgreSQL</title>
                  <path fill="none" stroke="black"
                        d="M59.82,-159.14C112.62,-163.04 224.92,-171.31 291.06,-176.19" />
                  <polygon fill="black" stroke="black"
                        points="290.71,-179.67 300.94,-176.92 291.22,-172.69 290.71,-179.67" />
            </g>
            <!-- Grafana&#45;&gt;Prometheus -->
            <g id="edge17" class="edge">
                  <title>Grafana&#45;&gt;Prometheus</title>
                  <path fill="none" stroke="black"
                        d="M60,-150.53C67.51,-148.87 75.82,-147.03 84.08,-145.2" />
                  <polygon fill="black" stroke="black"
                        points="84.76,-148.64 93.77,-143.06 83.25,-141.81 84.76,-148.64" />
            </g>
            <!-- Locust -->

            <a href="https://locust.harp.demo/" target="_blank">
                  <g id="node8" class="node">
                        <title>Locust</title>
                        <polygon fill="none" stroke="#6b7280"
                              points="266,-90 212,-90 212,-54 266,-54 266,-90" />
                        <text text-anchor="middle" x="239" y="-66.95" font-family="Times,serif"
                              font-size="14.00" fill="#6b7280">Locust</text>
                  </g>
            </a>
            <!-- Locust&#45;&gt;api1 (proxy) -->
            <g id="edge13" class="edge">
                  <title>Locust&#45;&gt;api1 (proxy)</title>
                  <path fill="none" stroke="black"
                        d="M266.46,-85.91C276.01,-90.93 287.08,-96.74 297.78,-102.36" />
                  <polygon fill="black" stroke="black"
                        points="296.03,-105.4 306.51,-106.96 299.29,-99.2 296.03,-105.4" />
            </g>
            <!-- Locust&#45;&gt;api2 (proxy) -->
            <g id="edge14" class="edge">
                  <title>Locust&#45;&gt;api2 (proxy)</title>
                  <path fill="none" stroke="black" d="M266.46,-72C273.82,-72 282.08,-72 290.37,-72" />
                  <polygon fill="black" stroke="black"
                        points="290.11,-75.5 300.11,-72 290.11,-68.5 290.11,-75.5" />
            </g>
      </g>
</svg>